<?xml version="1.0" standalone="no"?>
<!DOCTYPE svg PUBLIC "-//W3C//DTD SVG 20010904//EN"
 "http://www.w3.org/TR/2001/REC-SVG-20010904/DTD/svg10.dtd">
<svg version="1.0" xmlns="http://www.w3.org/2000/svg"
 width="722.000000pt" height="547.000000pt" viewBox="0 0 722.000000 547.000000"
 preserveAspectRatio="xMidYMid meet">

<g transform="translate(0.000000,547.000000) scale(0.100000,-0.100000)"
fill="#000000" stroke="none">
<path d="M1811 4512 c-986 -527 -1793 -961 -1793 -966 0 -11 3571 -1916 3592
-1916 21 0 3592 1905 3592 1916 0 7 -3551 1908 -3587 1919 -5 2 -817 -427
-1804 -953z m2048 564 c233 -123 298 -161 246 -142 -121 45 -497 75 -732 57
-87 -6 -169 -14 -183 -17 -14 -3 27 23 90 57 147 80 325 177 326 178 1 1 114
-59 253 -133z m1794 -956 c622 -332 1072 -577 1065 -581 -438 -236 -1991
-1059 -1994 -1056 -9 9 -45 165 -56 245 -9 62 -12 296 -13 807 -1 620 -3 733
-17 815 -33 185 -72 275 -166 374 l-47 49 75 -39 c41 -22 560 -298 1153 -614z
m-3079 528 c-5 -7 -22 -33 -40 -58 -67 -94 -167 -332 -148 -349 5 -5 140 -32
299 -60 160 -29 299 -54 310 -57 17 -3 27 10 62 83 25 53 59 106 85 132 93 95
244 132 452 112 277 -27 360 -109 367 -361 l2 -85 -63 -23 c-99 -36 -275 -79
-537 -132 -369 -75 -535 -123 -673 -196 -184 -96 -316 -266 -367 -469 -25
-103 -23 -305 6 -409 22 -81 86 -213 124 -253 11 -13 19 -25 16 -27 -2 -2
-425 221 -939 496 -514 274 -959 511 -988 526 l-53 28 1043 556 c574 306 1044
557 1046 557 2 1 0 -5 -4 -11z m1385 -1325 c-7 -247 -15 -285 -80 -382 -122
-183 -405 -285 -610 -221 -204 63 -317 298 -229 474 55 108 155 163 401 221
63 15 200 48 304 74 105 27 197 49 205 49 13 2 14 -26 9 -215z m80 -829 c7
-26 25 -89 42 -140 l30 -93 98 -3 98 -3 -342 -182 c-188 -101 -348 -183 -355
-183 -12 0 -543 279 -585 307 -16 11 -2 12 91 6 312 -17 613 88 844 296 30 27
58 47 61 45 4 -2 12 -25 18 -50z"/>
<path d="M504 709 c-148 -381 -270 -696 -272 -700 -2 -5 64 -9 146 -9 l151 0
19 53 c10 28 36 100 58 160 l38 107 282 0 281 0 60 -157 59 -158 153 -3 c143
-2 153 -1 147 15 -4 10 -129 325 -279 700 l-272 683 -151 0 -151 0 -269 -691z
m606 -141 c0 -5 -83 -8 -185 -8 -102 0 -185 4 -185 9 0 7 146 411 176 485 5
13 33 -50 100 -230 51 -137 94 -252 94 -256z"/>
<path d="M2980 700 l0 -700 140 0 140 0 0 210 0 210 112 115 c61 64 115 114
120 113 5 -2 94 -147 197 -323 l189 -320 181 -3 c99 -1 181 0 181 3 0 3 -124
195 -276 426 l-276 421 93 97 c52 53 173 176 269 274 l175 177 -192 0 -192 0
-288 -309 -288 -309 -3 309 -2 309 -140 0 -140 0 0 -700z"/>
<path d="M4390 700 l0 -700 535 0 535 0 0 120 0 120 -390 0 -390 0 0 185 0
185 350 0 350 0 0 120 0 120 -350 0 -350 0 0 155 0 155 375 0 375 0 0 120 0
120 -520 0 -520 0 0 -700z"/>
<path d="M5690 700 l0 -700 128 0 129 0 6 197 c4 108 7 352 7 542 l1 346 129
-520 c72 -286 132 -530 135 -543 5 -21 8 -22 143 -22 l137 0 137 543 136 542
1 -542 1 -543 130 0 130 0 0 700 0 700 -211 -2 -212 -3 -121 -467 c-66 -257
-123 -464 -127 -460 -4 4 -57 198 -119 432 -61 234 -116 442 -122 463 l-11 37
-214 0 -213 0 0 -700z"/>
<path d="M1790 695 l0 -695 495 0 495 0 0 120 0 120 -355 0 -355 0 0 575 0
575 -140 0 -140 0 0 -695z"/>
</g>
</svg>
