<?xml version="1.0" encoding="UTF-8"?>
<svg version="1.1" xmlns="http://www.w3.org/2000/svg" width="820" height="291">
<path d="M0 0 C3.57943945 2.73773958 5.84357384 6.03306203 8.140625 9.83203125 C8.50671875 9.32414062 8.8728125 8.81625 9.25 8.29296875 C14.81763742 1.21411545 22.28641759 -3.2847553 31.140625 -5.16796875 C42.532622 -6.15662063 53.05158722 -6.08910507 62.6953125 0.60546875 C65.45253788 3.11604138 66.77243202 5.35992683 68.390625 8.70703125 C68.89078125 9.71507813 69.3909375 10.723125 69.90625 11.76171875 C72.02978311 17.04367136 72.26465243 22.10527231 72.25415039 27.75537109 C72.25429642 28.41949005 72.25444244 29.08360901 72.2545929 29.76785278 C72.25390134 31.94292574 72.24614473 34.11791093 72.23828125 36.29296875 C72.23641438 37.80896966 72.23499175 39.32497117 72.23399353 40.8409729 C72.23018956 44.81607756 72.22037753 48.79114523 72.20928955 52.76623535 C72.19722336 57.543729 72.19266309 62.32123507 72.18683624 67.09873962 C72.17716452 74.34319583 72.15799318 81.587571 72.140625 88.83203125 C61.580625 88.83203125 51.020625 88.83203125 40.140625 88.83203125 C40.08003906 86.06957031 40.01945312 83.30710937 39.95703125 80.4609375 C39.89485745 77.72353395 39.83163108 74.98615653 39.76831055 72.2487793 C39.72554918 70.37640814 39.68384629 68.50401245 39.64331055 66.6315918 C39.50716707 60.36394957 39.34010961 54.09797738 39.140625 47.83203125 C39.1160321 46.99919617 39.09143921 46.16636108 39.06610107 45.30828857 C38.9911121 42.9701872 38.89575588 40.63390021 38.79296875 38.296875 C38.77263077 37.61113907 38.75229279 36.92540314 38.7313385 36.21888733 C38.51513577 31.97696505 37.67343257 29.24514152 35.140625 25.83203125 C32.85503684 23.87295568 31.26140076 22.86840531 28.21484375 22.76953125 C23.92112492 23.15766403 20.46864909 23.96623273 17.140625 26.83203125 C12.00146453 34.67966819 11.97360871 42.80954738 11.82421875 51.91796875 C11.7930471 53.50334946 11.7930471 53.50334946 11.76124573 55.12075806 C11.69608509 58.4827857 11.63702139 61.84488862 11.578125 65.20703125 C11.53490792 67.49219515 11.49129262 69.77735156 11.44726562 72.0625 C11.33969202 77.65226785 11.24036947 83.24209631 11.140625 88.83203125 C0.250625 88.83203125 -10.639375 88.83203125 -21.859375 88.83203125 C-21.88515625 84.88234375 -21.9109375 80.93265625 -21.9375 76.86328125 C-21.97594857 73.02401706 -22.02110005 69.18488589 -22.06689453 65.34570312 C-22.09725023 62.68411514 -22.11629614 60.02313105 -22.13037109 57.36132812 C-22.15185715 53.52821482 -22.19854063 49.69609523 -22.25 45.86328125 C-22.25122864 44.67963989 -22.25245728 43.49599854 -22.25372314 42.27648926 C-22.37502182 35.38340403 -22.98968779 30.62374853 -26.859375 24.83203125 C-30.58831703 22.54225749 -33.49945835 22.38100539 -37.859375 22.83203125 C-42.93147931 25.31835689 -45.87284108 28.5854511 -47.859375 33.83203125 C-50.77355017 44.93064676 -50.30486299 56.69610786 -50.484375 68.08203125 C-50.52263239 70.09897377 -50.56168838 72.1159013 -50.6015625 74.1328125 C-50.69818673 79.03246639 -50.77841787 83.93199435 -50.859375 88.83203125 C-61.749375 88.83203125 -72.639375 88.83203125 -83.859375 88.83203125 C-83.859375 58.47203125 -83.859375 28.11203125 -83.859375 -3.16796875 C-73.959375 -3.16796875 -64.059375 -3.16796875 -53.859375 -3.16796875 C-53.529375 1.12203125 -53.199375 5.41203125 -52.859375 9.83203125 C-51.498125 8.03765625 -51.498125 8.03765625 -50.109375 6.20703125 C-38.20536947 -7.49839843 -15.05453608 -9.45652581 0 0 Z " fill="#03636B" transform="translate(305.859375,84.16796875)"/>
<path d="M0 0 C6.89238433 6.03248993 10.3357545 13.45891775 11.42297363 22.52841187 C11.65010615 26.52579573 11.7625778 30.50925624 11.828125 34.51171875 C11.86563435 35.97577569 11.90478728 37.43979134 11.94549561 38.90376282 C12.04724707 42.71905948 12.12696642 46.53449568 12.20178223 50.35040283 C12.29665915 54.94905135 12.41946381 59.54703217 12.53747559 64.14513397 C12.71281168 71.09647972 12.85310751 78.04773327 13 85 C3.1 85 -6.8 85 -17 85 C-17.33 81.37 -17.66 77.74 -18 74 C-19.0209375 75.0828125 -19.0209375 75.0828125 -20.0625 76.1875 C-27.97638731 84.03450939 -35.66038886 86.39912609 -46.75 86.375 C-57.54297589 86.32883419 -66.35617334 84.76895342 -74.33984375 76.94921875 C-80.38027679 69.85703973 -80.83654429 62.10571507 -80.4453125 53.109375 C-79.86664714 46.02961445 -76.99485345 40.62089871 -71.9375 35.6875 C-58.1513985 25.15396358 -39.57663474 24.90117005 -23 26 C-21.65869386 26.29964435 -20.32158053 26.62275499 -19 27 C-20.21843442 23.01239646 -21.50100058 19.30690796 -24.70703125 16.51171875 C-35.35486088 10.91295556 -50.09041363 13.61741875 -61 17 C-63.42416672 17.89100167 -65.6765597 18.8652966 -68 20 C-69 19 -69 19 -69.11352539 16.86694336 C-69.10828857 15.95050049 -69.10305176 15.03405762 -69.09765625 14.08984375 C-69.09443359 13.10048828 -69.09121094 12.11113281 -69.08789062 11.09179688 C-69.07951172 10.05087891 -69.07113281 9.00996094 -69.0625 7.9375 C-69.05798828 6.89271484 -69.05347656 5.84792969 -69.04882812 4.77148438 C-69.03699913 2.1809334 -69.02051689 -0.40950559 -69 -3 C-48.81088364 -12.18154719 -18.27966814 -13.93943497 0 0 Z M-46.875 48.1875 C-49.49566064 51.65602144 -50.15522645 53.65365927 -50 58 C-47.37963871 61.25774647 -45.12903311 63.76257583 -40.86328125 64.23828125 C-34.59332593 64.42071487 -31.07308256 63.75408109 -26 60 C-22.37618475 56.37618475 -20.11986264 52.00275086 -19 47 C-19.33 46.01 -19.66 45.02 -20 44 C-22.68777802 43.9455793 -25.37443212 43.90612734 -28.0625 43.875 C-28.81466797 43.85824219 -29.56683594 43.84148437 -30.34179688 43.82421875 C-36.52380603 43.77069486 -41.80662383 44.33112683 -46.875 48.1875 Z " fill="#03636B" transform="translate(465,86)"/>
<path d="M0 0 C8.00563694 7.4459208 10.08067809 15.4785758 10.55859375 26.10546875 C10.59991928 26.979151 10.64124481 27.85283325 10.68382263 28.75299072 C11.18126913 39.88089032 11.38299894 51.01608557 11.59375 62.15234375 C11.63709676 64.3255263 11.68071516 66.49870344 11.72460938 68.671875 C11.83043641 73.91530517 11.93074159 79.15879836 12.03125 84.40234375 C2.13125 84.40234375 -7.76875 84.40234375 -17.96875 84.40234375 C-18.29875 80.44234375 -18.62875 76.48234375 -18.96875 72.40234375 C-19.95875 73.63984375 -20.94875 74.87734375 -21.96875 76.15234375 C-28.59192371 83.63481145 -36.16485179 85.59754614 -45.96875 86.40234375 C-56.14266044 86.63955928 -66.30604851 84.17784832 -73.96875 77.15234375 C-80.43699094 69.75103138 -81.6385802 62.74684527 -81.35546875 53.00390625 C-80.54373032 45.44407968 -77.76573155 40.35098654 -71.96875 35.40234375 C-70.89560547 34.4278125 -70.89560547 34.4278125 -69.80078125 33.43359375 C-66.35935547 30.96526078 -63.12449111 29.8863956 -59.09375 28.71484375 C-58.41183594 28.50279297 -57.72992187 28.29074219 -57.02734375 28.07226562 C-48.90414617 25.61983359 -41.09392003 25.24410276 -32.65625 25.27734375 C-31.65529297 25.27347656 -30.65433594 25.26960938 -29.62304688 25.265625 C-28.1912207 25.26755859 -28.1912207 25.26755859 -26.73046875 25.26953125 C-25.86381592 25.27065918 -24.99716309 25.27178711 -24.10424805 25.27294922 C-21.96875 25.40234375 -21.96875 25.40234375 -19.96875 26.40234375 C-21.15141198 22.27185264 -22.41380448 18.60160335 -25.8984375 15.9140625 C-38.02818916 10.29843673 -51.94826406 13.09696709 -63.96875 17.40234375 C-65.64034866 18.05654566 -67.3089658 18.71872206 -68.96875 19.40234375 C-69.83684439 14.2006128 -70.09390348 9.23255559 -70.03125 3.96484375 C-70.02673828 3.23330078 -70.02222656 2.50175781 -70.01757812 1.74804688 C-70.00593148 -0.03389044 -69.98800191 -1.81578488 -69.96875 -3.59765625 C-67.44998707 -4.41708573 -64.9290433 -5.22830694 -62.40625 -6.03515625 C-61.70177734 -6.26525391 -60.99730469 -6.49535156 -60.27148438 -6.73242188 C-41.5903482 -12.67250665 -15.82022158 -12.83823537 0 0 Z M-48.34375 48.27734375 C-50.27042725 50.79684477 -50.89129838 52.22682721 -50.96875 55.40234375 C-49.29722446 59.09729494 -47.39540214 61.27649453 -43.96875 63.40234375 C-38.8245629 64.26488872 -34.30029215 64.04345664 -29.59375 61.77734375 C-23.71805324 56.46123716 -20.67988251 52.44491385 -19.96875 44.40234375 C-22.09851722 42.27257653 -26.65763421 43.17083897 -29.59375 43.15234375 C-30.38910156 43.13171875 -31.18445313 43.11109375 -32.00390625 43.08984375 C-38.47188721 43.04736112 -43.1526435 44.17910178 -48.34375 48.27734375 Z " fill="#03636B" transform="translate(614.96875,86.59765625)"/>
<path d="M0 0 C6.15766232 5.42371873 10.58777312 12.58615605 11.93359375 20.703125 C12.0374104 22.38209377 12.09842111 24.06409862 12.12304688 25.74609375 C12.1397644 26.72481445 12.15648193 27.70353516 12.17370605 28.71191406 C12.18728149 29.76088867 12.20085693 30.80986328 12.21484375 31.890625 C12.23325317 32.9847168 12.2516626 34.07880859 12.27062988 35.20605469 C12.32926975 38.70502436 12.38205876 42.20404394 12.43359375 45.703125 C12.60513238 65.23095618 12.60513238 65.23095618 13.93359375 84.703125 C3.89818841 85.63799707 -5.99519616 85.81167697 -16.06640625 85.703125 C-16.72640625 82.073125 -17.38640625 78.443125 -18.06640625 74.703125 C-19.05640625 75.775625 -20.04640625 76.848125 -21.06640625 77.953125 C-27.88082803 84.74012456 -36.29459955 87.66578226 -45.81640625 88.015625 C-55.52358261 87.76213499 -64.78322787 85.35172942 -72.06640625 78.703125 C-78.03035672 71.66181573 -80.56969956 64.46572375 -80.3046875 55.24609375 C-79.48838014 46.53435455 -75.69991159 40.3763725 -69.06640625 34.703125 C-54.21918225 25.15339052 -35.94631422 26.29418202 -19.06640625 26.703125 C-19.50082031 25.59710938 -19.93523438 24.49109375 -20.3828125 23.3515625 C-20.62717041 22.72942871 -20.87152832 22.10729492 -21.12329102 21.46630859 C-22.9497593 18.05166869 -26.23899369 16.31226252 -29.82421875 15.1171875 C-43.10666617 12.66433136 -55.69983819 16.06566198 -68.06640625 20.703125 C-68.06640625 13.113125 -68.06640625 5.523125 -68.06640625 -2.296875 C-47.89000397 -10.94390455 -18.67055526 -13.56612822 0 0 Z M-47.62890625 50.015625 C-49.38498984 53.2987378 -49.67858994 55.03002289 -49.06640625 58.703125 C-46.9841628 62.52057133 -45.42732813 63.55630932 -41.37890625 65.203125 C-35.34577289 66.39624466 -30.35981576 64.0791707 -25.25390625 61.015625 C-21.30862941 56.84490377 -18.5915778 51.48001208 -18.06640625 45.703125 C-20.11833874 43.65119251 -24.25441595 44.46346863 -27.06640625 44.453125 C-34.83518504 44.45716997 -41.61305176 44.58668314 -47.62890625 50.015625 Z " fill="#03636B" transform="translate(789.06640625,85.296875)"/>
<path d="M0 0 C1.05692047 0.00212242 1.05692047 0.00212242 2.13519287 0.00428772 C4.37663084 0.00986692 6.61796743 0.02241552 8.859375 0.03515625 C10.38281105 0.04017394 11.90624868 0.04473638 13.4296875 0.04882812 C17.15628272 0.05982951 20.88281896 0.07707979 24.609375 0.09765625 C26.40483069 4.30438294 28.1950678 8.51331107 29.984375 12.72265625 C30.49226562 13.91246094 31.00015625 15.10226563 31.5234375 16.328125 C32.01328125 17.48183594 32.503125 18.63554688 33.0078125 19.82421875 C33.45817871 20.88205566 33.90854492 21.93989258 34.37255859 23.02978516 C35.57824971 26.02045127 36.62377541 29.02821751 37.609375 32.09765625 C37.99794678 31.16381104 38.38651855 30.22996582 38.78686523 29.26782227 C40.22496914 25.8134937 41.6663074 22.36052269 43.10864258 18.90795898 C43.73322891 17.41158471 44.35692962 15.91484046 44.97973633 14.41772461 C45.8735031 12.26969802 46.77041435 10.12300869 47.66796875 7.9765625 C47.9471666 7.30363663 48.22636444 6.63071075 48.51402283 5.93739319 C50.49550329 1.21152796 50.49550329 1.21152796 51.609375 0.09765625 C54.2756353 0.00910464 56.91584614 -0.01759048 59.58203125 0 C60.37967392 0.00141495 61.17731659 0.0028299 61.99913025 0.00428772 C64.55674935 0.00990309 67.11428218 0.02245813 69.671875 0.03515625 C71.40169145 0.04016927 73.13150926 0.04473252 74.86132812 0.04882812 C79.11071053 0.0598775 83.36002812 0.07715239 87.609375 0.09765625 C86.2121439 3.79578981 84.54372805 7.19361623 82.625 10.6484375 C82.02582764 11.72859131 81.42665527 12.80874512 80.80932617 13.92163086 C80.16584229 15.07284424 79.5223584 16.22405762 78.859375 17.41015625 C78.53111725 17.99959015 78.2028595 18.58902405 77.86465454 19.19631958 C72.36842445 29.06470595 66.73520609 38.84781861 61.00292969 48.58129883 C60.45411133 49.51353271 59.90529297 50.4457666 59.33984375 51.40625 C58.85926514 52.21892334 58.37868652 53.03159668 57.88354492 53.86889648 C57.46306885 54.60438721 57.04259277 55.33987793 56.609375 56.09765625 C56.23159912 56.69747314 55.85382324 57.29729004 55.46459961 57.9152832 C54.20827088 61.12119885 54.25128262 64.30949389 54.1953125 67.70703125 C54.17594635 68.43384094 54.1565802 69.16065063 54.1366272 69.90948486 C54.07703229 72.22209073 54.03052742 74.53474692 53.984375 76.84765625 C53.94617664 78.41929207 53.90712383 79.99090738 53.8671875 81.5625 C53.76974438 85.40744296 53.6900197 89.25217762 53.609375 93.09765625 C43.049375 93.09765625 32.489375 93.09765625 21.609375 93.09765625 C21.733125 88.00328125 21.856875 82.90890625 21.984375 77.66015625 C21.84273423 61.39559312 17.81747099 50.55052284 8.56103516 37.00585938 C5.32007453 32.17644695 2.46364393 27.12674414 -0.453125 22.09765625 C-1.48370928 20.36731605 -2.51616072 18.63808609 -3.55078125 16.91015625 C-5.48167354 13.65452853 -7.39228488 10.38901473 -9.26171875 7.09765625 C-9.67220459 6.37578125 -10.08269043 5.65390625 -10.50561523 4.91015625 C-11.390625 3.09765625 -11.390625 3.09765625 -11.390625 1.09765625 C-7.59524869 -0.12108125 -3.96270879 -0.01572503 0 0 Z " fill="#03636B" transform="translate(632.390625,77.90234375)"/>
<path d="M0 0 C-1.48626138 14.44573564 -11.29244976 25.31800857 -21.84765625 34.46875 C-32.59689853 42.91768336 -44.21035578 48.50330625 -56.94140625 53.25 C-57.98452469 53.63986084 -59.02764313 54.02972168 -60.10237122 54.43139648 C-72.70881537 59.08064334 -85.53266863 63.03019371 -98.37182617 66.97949219 C-128.11761002 76.15733017 -156.39877228 86.66263514 -176.171875 111.76171875 C-176.77515625 112.50035156 -177.3784375 113.23898438 -178 114 C-178.33 114 -178.66 114 -179 114 C-178.60265118 96.2999164 -170.26248774 82.08403408 -159 69 C-158.48050781 68.39542969 -157.96101563 67.79085937 -157.42578125 67.16796875 C-149.42463911 58.5622063 -139.25909613 52.30053009 -128.75 47.25 C-128.0497168 46.90984863 -127.34943359 46.56969727 -126.62792969 46.21923828 C-109.20326818 38.19340371 -90.29706197 34.18879554 -71.73681641 29.75268555 C-47.5977756 23.9616217 -24.07418098 17.9273142 -4.546875 1.94140625 C-2 0 -2 0 0 0 Z " fill="#F47B23" transform="translate(179,17)"/>
<path d="M0 0 C10.89 0 21.78 0 33 0 C33 43.56 33 87.12 33 132 C22.11 132 11.22 132 0 132 C0 88.44 0 44.88 0 0 Z " fill="#03636B" transform="translate(491,39)"/>
<path d="M0 0 C0.99 0.495 0.99 0.495 2 1 C0.12006626 20.91195127 -9.94141982 38.76722766 -25.03125 51.6953125 C-48.91424774 70.23606075 -78.04614023 77.587057 -106.9375 84.625 C-132.4164858 90.84388032 -155.30251183 97.34950672 -176 114 C-176.66 113.67 -177.32 113.34 -178 113 C-171.86128787 93.28748963 -158.77410694 79.58262708 -140.9375 69.8125 C-135.37038252 66.96904113 -129.66793472 64.57684999 -123.828125 62.35546875 C-122.4838166 61.8440332 -122.4838166 61.8440332 -121.11235046 61.32226562 C-107.24686205 56.13435691 -93.08846327 51.76922283 -78.98461914 47.28173828 C-48.65019172 37.60752599 -18.75319798 27.17917402 0 0 Z " fill="#F47B23" transform="translate(178,37)"/>
<path d="M0 0 C257.07 0 514.14 0 779 0 C779 1.65 779 3.3 779 5 C521.93 5 264.86 5 0 5 C0 3.35 0 1.7 0 0 Z " fill="#F37B23" transform="translate(22,199)"/>
<path d="M0 0 C11.22 0 22.44 0 34 0 C34 30.36 34 60.72 34 92 C22.78 92 11.56 92 0 92 C0 61.64 0 31.28 0 0 Z " fill="#03646B" transform="translate(174,81)"/>
<path d="M0 0 C0 26.73 0 53.46 0 81 C-14.52 81 -29.04 81 -44 81 C-44 62.52 -44 44.04 -44 25 C-32.12 19.555 -32.12 19.555 -20 14 C-10.67794261 8.11286213 -10.67794261 8.11286213 -2.4609375 1.28515625 C-1 0 -1 0 0 0 Z " fill="#03646B" transform="translate(158,92)"/>
<path d="M0 0 C14.52 0 29.04 0 44 0 C44 16.83 44 33.66 44 51 C38.06 53.475 38.06 53.475 32 56 C28.7739845 57.54032677 25.59927413 59.09169879 22.4375 60.75 C21.22042358 61.38699829 21.22042358 61.38699829 19.97875977 62.03686523 C14.04275915 65.23490407 8.98591089 68.80033807 3.93359375 73.28515625 C2 75 2 75 0 76 C0 50.92 0 25.84 0 0 Z " fill="#03636B" transform="translate(22,0)"/>
<path d="M0 0 C10 0 10 0 12.55859375 1.984375 C13.17863281 2.89703125 13.79867187 3.8096875 14.4375 4.75 C17.60194637 9.10320665 20.81151671 13.09897736 24.5 17 C28.77915935 21.59219603 32.81512779 26.32760094 36.734375 31.234375 C39.73477468 34.89693185 42.88222435 38.43682783 46 42 C46.33 28.14 46.66 14.28 47 0 C50.3 0 53.6 0 57 0 C57 19.8 57 39.6 57 60 C48 60 48 60 45.03125 57.76171875 C44.1959375 56.74722656 43.360625 55.73273438 42.5 54.6875 C42.03916016 54.14351563 41.57832031 53.59953125 41.10351562 53.0390625 C39.70810431 51.37996656 38.35152347 49.69493513 37 48 C36.236875 47.06800781 35.47375 46.13601563 34.6875 45.17578125 C33.22625458 43.38836498 31.77183375 41.59534821 30.32421875 39.796875 C26.9201452 35.70054447 23.30706135 31.81675914 19.67578125 27.921875 C16.70866395 24.68186954 13.85914659 21.33567102 11 18 C10.67 31.86 10.34 45.72 10 60 C6.7 60 3.4 60 0 60 C0 40.2 0 20.4 0 0 Z " fill="#03636B" transform="translate(167,231)"/>
<path d="M0 0 C0 14.19 0 28.38 0 43 C-14.52 43 -29.04 43 -44 43 C-44 33.43 -44 23.86 -44 14 C-37.59540923 10.79770461 -31.83469518 8.01740433 -25.125 5.875 C-24.35269043 5.62347168 -23.58038086 5.37194336 -22.78466797 5.11279297 C-6.85647886 0 -6.85647886 0 0 0 Z " fill="#03646B" transform="translate(66,130)"/>
<path d="M0 0 C14.52 0 29.04 0 44 0 C44 7.92 44 15.84 44 24 C14.57142857 38 14.57142857 38 0 38 C0 25.46 0 12.92 0 0 Z " fill="#03636B" transform="translate(114,0)"/>
<path d="M0 0 C7.57004405 3.78502203 11.28657388 10.24189433 14 18 C16.54992367 30.34699882 15.70016312 43.53943242 9.125 54.5625 C5.91408898 58.24560381 3.36414113 60.6547156 -1.62109375 61.3828125 C-7.58081146 61.62540617 -11.41742428 61.13549516 -16 57 C-22.54772049 50.64485953 -24.57441014 40.92638426 -25.03125 32.109375 C-24.93212198 22.24613744 -23.42718582 11.77388565 -16.41015625 4.30859375 C-11.10232363 -0.24653889 -6.81548007 -0.75494548 0 0 Z M-9.625 11.125 C-14.47273294 16.9933083 -14.33813156 23.09563809 -14.3125 30.375 C-14.33666992 31.73625 -14.33666992 31.73625 -14.36132812 33.125 C-14.36595545 39.54772488 -13.81538945 45.52219508 -9.6105957 50.71630859 C-7.89511173 52.35090486 -7.89511173 52.35090486 -4.5625 52.0625 C-0.86382342 51.29556508 -0.86382342 51.29556508 1.3125 48.4375 C5.9050951 39.08221369 6.45923056 28.575622 3.8125 18.5 C2.37776099 14.34467099 0.61490248 11.64505059 -3 9 C-7.04472242 8.58053451 -7.04472242 8.58053451 -9.625 11.125 Z " fill="#03636B" transform="translate(787,230)"/>
<path d="M0 0 C11.55 0 23.1 0 35 0 C35 2.64 35 5.28 35 8 C26.75 8 18.5 8 10 8 C10 13.61 10 19.22 10 25 C18.25 25 26.5 25 35 25 C35 27.97 35 30.94 35 34 C26.75 34 18.5 34 10 34 C10 39.61 10 45.22 10 51 C18.58 51 27.16 51 36 51 C36 53.97 36 56.94 36 60 C24.12 60 12.24 60 0 60 C0 40.2 0 20.4 0 0 Z " fill="#03636B" transform="translate(378,231)"/>
<path d="M0 0 C0 3.63 0 7.26 0 11 C-0.73863281 10.72285156 -1.47726562 10.44570312 -2.23828125 10.16015625 C-12.95781679 6.33272361 -22.24462568 4.27385902 -33 9 C-37.28637872 11.73598642 -40.07674474 14.92678667 -41.55859375 19.859375 C-42.90717647 26.39940445 -42.61804866 32.40296096 -39.265625 38.24609375 C-35.79263341 43.05897407 -31.69499434 45.40177242 -26 47 C-17.54335843 48.04335188 -11.01670034 46.74306241 -3.36328125 43.09375 C-1 42 -1 42 1 42 C1 45.63 1 49.26 1 53 C-10.13034345 58.16189841 -23.27091553 59.18550892 -35.125 55.5625 C-42.48361353 52.30090614 -48.13900023 46.5784593 -51.5625 39.3125 C-54.55823593 30.43573409 -54.23629538 20.66526287 -50.2578125 12.1796875 C-45.85273222 4.54603906 -39.93733981 0.07368272 -31.875 -3.3125 C-21.4134295 -5.16858509 -9.6793336 -4.8396668 0 0 Z " fill="#03636B" transform="translate(327,234)"/>
<path d="M0 0 C5.44078 2.85049561 7.94084388 7.04792379 10.046875 12.62890625 C12.41360916 24.26534921 9.57413438 35.42860672 3.6796875 45.6328125 C-0.33989686 51.36197112 -5.37870998 56.4334629 -11.203125 60.31640625 C-12.523125 60.31640625 -13.843125 60.31640625 -15.203125 60.31640625 C-17.453125 57.81640625 -17.453125 57.81640625 -19.203125 55.31640625 C-17.80555941 52.02927494 -16.24667749 50.32152013 -13.453125 48.12890625 C-9.04695631 44.4302975 -6.14118809 40.22430709 -3.203125 35.31640625 C-3.84378906 35.35121094 -4.48445312 35.38601563 -5.14453125 35.421875 C-10.88985851 35.60168405 -15.11531913 35.30923323 -20.203125 32.31640625 C-24.51547552 28.00405573 -27.15316339 24.13846918 -27.234375 17.92578125 C-26.81564323 10.93296076 -24.92402416 6.77185183 -19.640625 2.00390625 C-14.15041433 -1.79700883 -6.30409308 -1.95605725 0 0 Z M-14.078125 10.12890625 C-16.54831531 12.67174922 -17.11170582 13.6307624 -17.578125 17.12890625 C-17.43455025 20.44668237 -17.43455025 20.44668237 -15.265625 23.19140625 C-11.14484443 26.05072338 -8.0706629 26.10500178 -3.203125 25.31640625 C-0.44675154 24.6264947 -0.44675154 24.6264947 0.796875 22.31640625 C1.10862808 17.98467918 0.54688358 14.4702656 -1.828125 10.81640625 C-6.18791692 8.06285346 -9.62774712 7.32323324 -14.078125 10.12890625 Z " fill="#03636B" transform="translate(621.203125,230.68359375)"/>
<path d="M0 0 C1.0725 0.66 2.145 1.32 3.25 2 C3.25 5.63 3.25 9.26 3.25 13 C-0.75 11 -0.75 11 -3.4375 9.375 C-8.55151489 7.25220137 -13.50698737 7.25232912 -18.75 9 C-19.16890218 11.78938212 -19.16890218 11.78938212 -18.75 15 C-15.50411865 18.72391114 -11.99067932 21.28313072 -7.8125 23.875 C-2.32615173 27.44247769 2.26009874 31.02019747 5.25 37 C5.75282832 42.50638223 5.96321529 47.40239776 3.6875 52.5 C-1.60945591 57.93277529 -5.16067536 59.25849761 -12.6875 59.5 C-18.77941171 59.33763562 -24.23597993 58.51402007 -28.75 54 C-28.82244053 51.98035801 -28.83377188 49.95832876 -28.8125 47.9375 C-28.80347656 46.83277344 -28.79445313 45.72804688 -28.78515625 44.58984375 C-28.77355469 43.73519531 -28.76195313 42.88054687 -28.75 42 C-26.00752267 43.61866284 -23.39575966 45.25625897 -20.8125 47.125 C-17.56762741 49.11165669 -15.53260185 49.83903822 -11.75 50 C-8.61643316 49.07417343 -7.06531305 48.31531305 -4.75 46 C-4.16511438 43.62875402 -4.16511438 43.62875402 -4.75 41 C-8.826292 36.39699612 -13.61220252 33.15826174 -18.66601562 29.75 C-23.28569624 26.55368044 -26.91659668 23.50020995 -28.75 18 C-29.27661707 11.78591854 -28.66852626 7.03174394 -24.75 2 C-18.02345972 -3.7563662 -7.67819111 -3.81186792 0 0 Z " fill="#03636B" transform="translate(49.75,232)"/>
<path d="M0 0 C4.64833121 3.45645141 7.21192871 7.13030585 8.4375 12.8125 C8.33024903 19.46206024 6.28840761 23.46954331 2.4375 28.8125 C3.4275 29.1425 4.4175 29.4725 5.4375 29.8125 C9.39821358 35.24014454 9.18925355 41.38371105 8.4375 47.8125 C6.97282479 52.89741015 3.50043513 56.3614768 -1.015625 58.93359375 C-7.42125421 61.1441253 -14.83010605 61.03242987 -20.9921875 58.28125 C-21.84039063 57.7965625 -22.68859375 57.311875 -23.5625 56.8125 C-23.5625 53.5125 -23.5625 50.2125 -23.5625 46.8125 C-20.77892962 47.3037183 -18.32887436 47.90391873 -15.6875 48.9375 C-11.88781298 50.00141237 -9.37805153 49.74839 -5.5625 48.8125 C-3.49847315 47.83201062 -3.49847315 47.83201062 -2.5625 45.8125 C-1.94389791 41.21295413 -1.94389791 41.21295413 -3.82421875 37.19921875 C-5.74747036 35.66493938 -7.42957112 34.92383617 -9.75 34.125 C-11.008125 33.691875 -12.26625 33.25875 -13.5625 32.8125 C-13.5625 29.8425 -13.5625 26.8725 -13.5625 23.8125 C-12.93601562 23.63074219 -12.30953125 23.44898438 -11.6640625 23.26171875 C-10.84679687 23.01035156 -10.02953125 22.75898438 -9.1875 22.5 C-7.96933594 22.13455078 -7.96933594 22.13455078 -6.7265625 21.76171875 C-4.23065371 20.89881815 -4.23065371 20.89881815 -2.5625 17.8125 C-2.70111349 14.48577622 -2.97260781 12.52037063 -5.125 9.9375 C-9.83750651 7.762497 -14.24767016 8.43683433 -19.0625 9.8125 C-19.8875 10.1425 -20.7125 10.4725 -21.5625 10.8125 C-22.5625 9.8125 -22.5625 9.8125 -22.66015625 7.74609375 C-22.64855469 6.92238281 -22.63695312 6.09867188 -22.625 5.25 C-22.61597656 4.42371094 -22.60695313 3.59742188 -22.59765625 2.74609375 C-22.58605469 2.10800781 -22.57445312 1.46992188 -22.5625 0.8125 C-15.25501385 -1.94981781 -7.46759276 -2.48919759 0 0 Z " fill="#03636B" transform="translate(704.5625,231.1875)"/>
<path d="M0 0 C3.3 0 6.6 0 10 0 C10 19.8 10 39.6 10 60 C6.7 60 3.4 60 0 60 C0 40.2 0 20.4 0 0 Z " fill="#03646B" transform="translate(524,231)"/>
<path d="M0 0 C2.97 0 5.94 0 9 0 C9 19.8 9 39.6 9 60 C6.03 60 3.06 60 0 60 C0 40.2 0 20.4 0 0 Z " fill="#03636B" transform="translate(105,231)"/>
<path d="M0 0 C2.31 0 4.62 0 7 0 C8.32 2.97 9.64 5.94 11 9 C12.32 6.03 13.64 3.06 15 0 C16.98 0 18.96 0 21 0 C21 6.6 21 13.2 21 20 C19.35 19.67 17.7 19.34 16 19 C15.67 17.68 15.34 16.36 15 15 C14.01 17.475 14.01 17.475 13 20 C11.35 20 9.7 20 8 20 C7.34 18.35 6.68 16.7 6 15 C5.67 16.65 5.34 18.3 5 20 C3.35 20 1.7 20 0 20 C0 13.4 0 6.8 0 0 Z " fill="#03636B" transform="translate(799,0)"/>
<path d="M0 0 C5.28 0 10.56 0 16 0 C16 1.32 16 2.64 16 4 C14.35 4 12.7 4 11 4 C11 9.28 11 14.56 11 20 C9.35 20 7.7 20 6 20 C6 14.72 6 9.44 6 4 C4.02 4 2.04 4 0 4 C0 2.68 0 1.36 0 0 Z " fill="#03646B" transform="translate(781,0)"/>
</svg>
